/* XPM */
static char *e2577e7da8664ad1d6e837c8188c4c6arCdngQhNRiSrfLx5[] = {
/* columns rows colors chars-per-pixel */
"32 32 130 2 ",
"   c None",
".  c #1A3324",
"X  c #1C3B26",
"o  c #1A322A",
"O  c #1D3B2A",
"+  c #1F3536",
"@  c #223723",
"#  c #223B22",
"$  c #213735",
"%  c #223C36",
"&  c #21373B",
"*  c #233C3B",
"=  c #324E1E",
"-  c #33511E",
";  c #1D4124",
":  c #1F422D",
">  c #254026",
",  c #2C4721",
"<  c #294920",
"1  c #224C2D",
"2  c #25443C",
"3  c #2A453A",
"4  c #274A3D",
"5  c #294D3D",
"6  c #314E39",
"7  c #2E5337",
"8  c #27503A",
"9  c #2B543E",
"0  c #2D5B3F",
"q  c #335B36",
"w  c #33543A",
"e  c #345C3C",
"r  c #3A5C39",
"t  c #2E623E",
"y  c #3A6435",
"u  c #3C6A35",
"i  c #33643E",
"p  c #3A643B",
"a  c #366C3E",
"s  c #3C6A3B",
"d  c #37713F",
"f  c #3C743E",
"g  c #436A36",
"h  c #486F36",
"j  c #406738",
"k  c #416B39",
"l  c #467433",
"z  c #497337",
"x  c #4E7C35",
"c  c #43743A",
"v  c #437C3C",
"b  c #4A7D3A",
"n  c #517E35",
"m  c #294645",
"M  c #2A4B46",
"N  c #2E4C49",
"B  c #2A5541",
"V  c #2D5C40",
"C  c #2D554A",
"Z  c #2F5E48",
"A  c #305746",
"S  c #305149",
"D  c #325C4C",
"F  c #2F6340",
"G  c #306541",
"H  c #316B41",
"J  c #3C6E45",
"K  c #32644D",
"L  c #356C4C",
"P  c #3A6E4D",
"I  c #337241",
"U  c #387340",
"Y  c #367B42",
"T  c #36734D",
"R  c #3A7349",
"E  c #3C7B4E",
"W  c #366F50",
"Q  c #3B7750",
"!  c #3A7E51",
"~  c #406E44",
"^  c #447F46",
"/  c #437148",
"(  c #417F4E",
")  c #46833C",
"_  c #48873C",
"`  c #4D8A3E",
"'  c #528336",
"]  c #578C36",
"[  c #598E35",
"{  c #518539",
"}  c #538D39",
"|  c #5A9136",
" . c #5F9C36",
".. c #549139",
"X. c #599738",
"o. c #599838",
"O. c #609734",
"+. c #619B35",
"@. c #64A035",
"#. c #3C8551",
"$. c #3F8951",
"%. c #3E8C52",
"&. c #488A47",
"*. c #40824F",
"=. c #44834E",
"-. c #43844D",
";. c #44874E",
":. c #48814A",
">. c #4E8448",
",. c #468B4E",
"<. c #478D4E",
"1. c #4D9347",
"2. c #4E934C",
"3. c #4D964D",
"4. c #4D984D",
"5. c #509144",
"6. c #599447",
"7. c #5C9A45",
"8. c #539349",
"9. c #519D4D",
"0. c #5A9C49",
"q. c #5FA943",
"w. c #58A44B",
"e. c #59A94C",
"r. c #67A644",
"t. c #65AA40",
"y. c #69B340",
"u. c #75BD42",
"i. c #79BD41",
"p. c #80C940",
/* pixels */
"O Z =.A / p.8.$.D C T W W ( N 7.i.,.! C K T K Q / S u.r.$.W m O ",
"# K ,.-.D 9.2.=.6.E %.T P 8.P L e.( 2.>.#.#.P E 2.D ;.w.Q 0.R : ",
": ` L C m L L E y.J M R 5.D M M T K 1.t.B C &.:.C m Z R L q.} o ",
"o 4 7 * 4 i 0 4 0 B t B B 4 * 9 H 5 5 V 0 t 4 9 2 * t G 4 B 8 . ",
". % ] b 8 B 5 0 F t Y 5 w  .p 9 9 4 i 0 H I * z ] 0 9 9 9 H 8 ; ",
"  % a ) 0 I 5 4 B 9 F 5 4 v c G a 2 B 0 V V 4 9 _ i H 0 2 9 8 X ",
"X 3 s i 5 F 4 2 H F H H 5 c 9 B F + B H F I B i s M V 9 % 0 t X ",
"X l  .i 9 F H 5 G B 3 9 | } 9 9 H t B F 2 4 a +.v 9 0 I B t 9   ",
"> l a B _ n 5 * * * j r b V V ..k 2 & * 3 p s v 9 a ] e * * + @ ",
"- q F 9 a ] 5 h g * } ] G F 9 v x 3 n w w +.c F 0 0 } y r n $ . ",
"X t H 2 5 g r X.i 3 V G H F * p r c ..5 4 G i H 5 2 j w } v %   ",
"X 4 f 9 9  .b G 5 4 G B B c 2 k +.f F 2 0 G 5 i s 2 } ] G e % X ",
"  q i i 2 H a H [ a t 0 i a 9 5 U F ) ) i F i i a m 0 d V } u X ",
"  u 0 * * F G 0 _ w m e f 4 * 2 H B a ) 2 4 a a 2 * 8 H V v u   ",
". % p 5 5 G 4 4 B V Y 5 5 y 2 V F 2 9 9 H H 2 q w 2 t 0 4 B 5 X ",
". % } ] 9 G 9 0 G V H 5 w  .c 9 F 5 G e F i 2 f  .i B 0 9 H 8 ; ",
": % V H B H 2 3 B V F B 2 H i G F * 4 V V V M 5 d 0 H 9 2 9 8 X ",
"; w ' p 4 F 0 2 H F G H p ' 9 5 F 5 9 I V H t z b 5 B F 2 F t o ",
"  x ..i i i H 4 0 2 * 9 +.v 0 a G t 4 B 2 * k +.a 0 i G 9 9 3   ",
", q V 9 _ | 3 * 3 2 n k s 9 0 o.b * 3 * w ' p i 5 U +.p % 3 + # ",
"- y H 8 0 c 6 ] z * ) } a H 5 i j r  .7 5 ..b H V 5 c q z | % . ",
"X 0 F 2 w x s _ 9 2 9 9 F 0 * s h c ^ 2 4 0 V G 5 * n p ) a %   ",
"X 2 f a 5 } b i i 9 I B 9 ) 5 i X.a a w F H 9 i b 2 v ..i i 4 X ",
"  u i 9 2 F V a +.i B i c 0 4 4 F B ) | 9 9 a a B 2 B F 0 X.l X ",
"X 0 9 & 2 H F 9 a 9 5 9 i 2 + M U B 0 H 4 9 0 i * * 0 H 9 i 0 . ",
". $ n y 5 B 2 9 F F Y 9 5 ' w B 9 2 t 9 H U * g z 5 0 5 4 F 8 ; ",
"  % v ..V H 0 9 V B F 5 8 ..b V H 5 V 0 F V 2 i o.i G t 5 t 4 X ",
"X 2 e t 9 F * 2 F V H t 3 i V V 0 * 4 F F H 9 5 a 9 F 5 % 9 0 X ",
"X y +.i m i i 4 U 9 B i x | 9 M H 0 9 H 5 0 i | b 5 B H 5 F t   ",
"  x ) B f f 0 2 4 * 3 9 | a 0 b i 9 2 4 2 2 u ..V G b e 4 2 %   ",
"= q V 9 v +.4 7 w 2 ] x t 0 V } ' * e 3 w  .k V B H +.y 3 r % @ ",
"< i Y 5 4 r w +.c 2 U ) I H 2 9 q h +.w M v v Y 0 2 e 6 [ ..% . "
};
