/* XPM */
static char *_388210922534eaad70cbcfc4a695581ftpwU58K0dr7xH73[] = {
/* columns rows colors chars-per-pixel */
"32 32 194 2 ",
"   c None",
".  c #010101",
"X  c #090906",
"o  c #1A0E09",
"O  c #140A07",
"+  c #071D09",
"@  c #16120B",
"#  c #1E1914",
"$  c #0B1318",
"%  c #27160D",
"&  c #271B13",
"*  c #391D0C",
"=  c #06270D",
"-  c #063913",
";  c #112E12",
":  c #382416",
">  c #362D24",
",  c #2D2922",
"<  c #452613",
"1  c #4F2C15",
"2  c #452B1C",
"3  c #57391B",
"4  c #46361D",
"5  c #683C1F",
"6  c #713F1E",
"7  c #492D20",
"8  c #483D30",
"9  c #51352D",
"0  c #6C3C21",
"q  c #094217",
"w  c #094A19",
"e  c #1A4615",
"r  c #0A531C",
"t  c #145417",
"y  c #224B1A",
"u  c #3C551F",
"i  c #1E611A",
"p  c #24731F",
"a  c #156923",
"s  c #0D7B29",
"d  c #127C29",
"f  c #1A7D2E",
"g  c #1A7525",
"h  c #356626",
"j  c #337E22",
"k  c #28782A",
"l  c #5D451E",
"z  c #5C481E",
"x  c #4B441D",
"c  c #5A5F22",
"v  c #594836",
"b  c #6D4921",
"n  c #774624",
"m  c #725230",
"M  c #566423",
"N  c #426E2E",
"B  c #1C3246",
"V  c #413E44",
"C  c #3B4759",
"Z  c #2A525D",
"A  c #367F48",
"S  c #375776",
"D  c #4C4846",
"F  c #484B52",
"G  c #6E5852",
"H  c #667F5D",
"J  c #4E5579",
"K  c #4D6563",
"L  c #7B7B67",
"P  c #93691B",
"I  c #8F661D",
"U  c #855629",
"Y  c #885833",
"T  c #905F3B",
"R  c #876334",
"E  c #926A36",
"W  c #926536",
"Q  c #927436",
"!  c #A5793E",
"~  c #876446",
"^  c #9A6D48",
"/  c #986C46",
"(  c #9C754B",
")  c #897E50",
"_  c #A57C41",
"`  c #A77D43",
"'  c #A67D56",
"]  c #14812A",
"[  c #288B27",
"{  c #338624",
"}  c #2C9429",
"|  c #349A29",
" . c #389928",
".. c #3DA329",
"X. c #5B9A1D",
"o. c #6AAD1A",
"O. c #518526",
"+. c #479829",
"@. c #50872F",
"#. c #6B9034",
"$. c #629C2F",
"%. c #44A129",
"&. c #79A32C",
"*. c #46894B",
"=. c #A7A600",
"-. c #98862D",
";. c #AB843C",
":. c #AB8739",
">. c #B49136",
",. c #BC9A33",
"<. c #AB8B31",
"1. c #88AD36",
"2. c #C9B916",
"3. c #C79F35",
"4. c #C6AA2A",
"5. c #D1BA21",
"6. c #CDB42E",
"7. c #E3BE3D",
"8. c #96CE17",
"9. c #95CB18",
"0. c #DBCA1A",
"q. c #D6C71C",
"w. c #D3CC0E",
"e. c #E7DC11",
"r. c #E1D317",
"t. c #EEE50D",
"y. c #EBE306",
"u. c #F2EC09",
"i. c #F3EE07",
"p. c #EBF503",
"a. c #FDFB02",
"s. c #FAF507",
"d. c #F5E915",
"f. c #EFE610",
"g. c #E7CC2C",
"h. c #F1D928",
"j. c #E9C736",
"k. c #EFD52A",
"l. c #869B45",
"z. c #AC8545",
"x. c #B88946",
"c. c #A98351",
"v. c #B38C56",
"b. c #BA9556",
"n. c #A88668",
"m. c #BA9469",
"M. c #BC9670",
"N. c #AEA877",
"B. c #AFAA78",
"V. c #BDA07B",
"C. c #C79949",
"Z. c #CEA544",
"A. c #DCB442",
"S. c #D3A250",
"D. c #E1B447",
"F. c #C49F78",
"G. c #C2A37C",
"H. c #CAA67A",
"J. c #E8C255",
"K. c #2D519F",
"L. c #3E5B9D",
"P. c #006087",
"I. c #6D6A80",
"U. c #5D8485",
"Y. c #709189",
"T. c #1BAFDE",
"R. c #66BBCD",
"E. c #31C7F9",
"W. c #8A8E9B",
"Q. c #B9B2AD",
"!. c #A9A7A5",
"~. c #CAAB84",
"^. c #D5B38B",
"/. c #DCBC94",
"(. c #CFB086",
"). c #DFC097",
"_. c #E2C49A",
"`. c #DECFBA",
"'. c #EBCDA4",
"]. c #E7CCA8",
"[. c #EDD0A5",
"{. c #ECD3A9",
"}. c #F4DBB3",
"|. c #F6DAAD",
" X c #FFE6BD",
".X c #EEE1BE",
"XX c #A9B5D0",
"oX c #BAC1D3",
"OX c #CCD5CE",
"+X c #F1DFC2",
"@X c #FFEBCB",
"#X c #FFE8C1",
"$X c #FEF4E3",
"%X c #FFFEF9",
/* pixels */
"                      . q s d d d d d q .                       ",
"                  . = q g } } } } } } g w = .                   ",
"                  + q d [  .|  .| |  .[ s - +                   ",
"              . + s d ] d ] ] d ] d ] d d d s + .               ",
"            . r a | | | | | |  . .| | | } | } a r .             ",
"          = - N @.l.1.8.8.8.&.#.#.&.8.8.8.&.#.} [ - =           ",
"        . t k -.3.A.g.i.s.a.4.:._ ,.a.a.s.6.<.$. .] w .         ",
"        . < m r.s.s.r.:.0.a.s.t.:.,.a.0.;.0.u.>.Q f r .         ",
"z.v.^.~ < W >.4.6.j.g.r.5.4.u.a.r.e.a.q._ ,.4.0.2.M x < ~ ^.v.! ",
"E c.).m.U 3.7.z.` 7.g.e.4.` e.a.d.d.e.6.v.` ;.u.y.U T ( F.).c.E ",
"0 / }.(._ q.i.>.>.s.r.;.! :.e.s.D.Z.z.m.^.m.z.u.f.;.M..X}.}./ 6 ",
"    W U.T.H P C.7.a.a.t.t.t.j.D.x.v.H.~.^._.[.J.A._ Y.E.Y.W     ",
"    * K R.L U x.C.k.h.h.h.h.Z.C.W ( ^.).].'._.v.! 5.l.P.Z       ",
"    . v H.b.<.! ! x.x.S.S.S.` E U ^ ^./.].~.n.Y P a.=..         ",
"    . : n 2.i.I 5 o 4 ( z.! U m F.(.^.v.n : # R >.a.=..         ",
"      o % <.g.U m !.W.I.G U ' m.].^./ G J W.!.W E j.-..         ",
"        . W >.Y ( $XXXK.I.n.^.'.#X].' I.K.oX$Xm 3 E m .         ",
"          6 6 E v.|.Q.L.XX%X@X X#X@X%XXXL.Q.{., . . .           ",
"              # : c.G.`.+X@X#X X X@X@X+X`.G.c.& .               ",
"            . - e U / m.^.].'.'.'.'.].^.m./ U e - .             ",
"          $ $ A *.b l z ) N.N.N.N.N.B.) l l z *.A @ X           ",
"    . . . B S OXOXt t s d d f f f f f f g t y OXOX9 & . . .     ",
". o 1 1 1 C S F D 3 u s s s s s s s s s s u x D F F V 1 1 1 o . ",
". & ^ ^ / F B ; ; c M h h h X.o.o.X.h h h M c O . B D ^ ^ / & . ",
". > V.~.V.8 . r g ..O.b b b w.p.p.w.b b b O.+.+ . . 8 ~.~.V.> . ",
"    # # #     + ; +.%.+.{ g { { [ { g [ +.%.%.= .     # $ #     ",
"              . X e e e p } [ } [ } } [ [ i ; X . . .           ",
"              . . . . X y { { j j { O.j p ; o o @ . .           ",
"                  . o 7 & . X . . @ 2 7 7 3 6 6 1 X .           ",
"                    X O X           O : 0 n 6 % o               ",
"                      .             . % < < < O                 ",
"                                        . . .                   "
};
