/* XPM */
static char *d3718fa24cc940fed52ba5d5eba72380v57qL0h9AjvAsCmA[] = {
/* columns rows colors chars-per-pixel */
"32 32 209 2 ",
"   c None",
".  c #391D22",
"X  c #4B2A31",
"o  c #503138",
"O  c #663433",
"+  c #583B40",
"@  c #665355",
"#  c #755D4A",
"$  c #7A5273",
"%  c #9E6D18",
"&  c #875736",
"*  c #8E6028",
"=  c #996D36",
"-  c #937034",
";  c #976B28",
":  c #A3723F",
">  c #A76E38",
",  c #FF1763",
"<  c #9A564A",
"1  c #875458",
"2  c #A15E54",
"3  c #9B6E4F",
"4  c #977747",
"5  c #926E5A",
"6  c #AC7A45",
"7  c #A86D57",
"8  c #B56C55",
"9  c #85476A",
"0  c #89566C",
"q  c #985B7A",
"w  c #885873",
"e  c #986565",
"r  c #9B667B",
"t  c #A76562",
"y  c #A97A63",
"u  c #AB7866",
"i  c #B4776B",
"p  c #AC7372",
"a  c #AA7B7D",
"s  c #A06B77",
"d  c #FF4767",
"f  c #D87166",
"g  c #FF7473",
"h  c #B4873A",
"j  c #DCA81F",
"k  c #C6983B",
"l  c #DCB13B",
"z  c #E3BD3D",
"x  c #E5B937",
"c  c #AB8447",
"v  c #BA8A49",
"b  c #B39053",
"n  c #BEA15D",
"m  c #9E8061",
"M  c #918179",
"N  c #A88578",
"B  c #B19079",
"V  c #AE886B",
"C  c #BFAB7B",
"Z  c #C59847",
"A  c #C48E53",
"S  c #C68D47",
"D  c #D9AD42",
"F  c #DCB24B",
"G  c #CBA859",
"H  c #D4AD5B",
"J  c #DBA855",
"K  c #DEBC51",
"L  c #E0BB47",
"P  c #D09560",
"I  c #C69269",
"U  c #C5A260",
"Y  c #D4A668",
"T  c #C5B269",
"R  c #CEA974",
"E  c #E0A36E",
"W  c #E9B478",
"Q  c #E8C54B",
"!  c #ECD45C",
"~  c #ECD868",
"^  c #F2DF69",
"/  c #E2CD73",
"(  c #EFE16A",
")  c #F2E572",
"_  c #F5E973",
"`  c #F4E066",
"'  c #7F3D85",
"]  c #864E8C",
"[  c #854B86",
"{  c #8A548D",
"}  c #945B8A",
"|  c #874D90",
" . c #847884",
".. c #947492",
"X. c #B46D99",
"o. c #AB7D98",
"O. c #B5729A",
"+. c #B37C9A",
"@. c #B37B81",
"#. c #A269A8",
"$. c #5D8CB4",
"%. c #7292B0",
"&. c #688EB1",
"*. c #6D95C6",
"=. c #7BA2D4",
"-. c #70AAEE",
";. c #8F818C",
":. c #938A89",
">. c #9C9D9C",
",. c #9F9C97",
"<. c #BF9D84",
"1. c #A38E9A",
"2. c #AC879C",
"3. c #A2969E",
"4. c #A29A9E",
"5. c #B99896",
"6. c #AE898C",
"7. c #BAAF81",
"8. c #AAA28E",
"9. c #9C9CA1",
"0. c #9599A3",
"q. c #919FB5",
"w. c #A697A6",
"e. c #BB9DA6",
"r. c #B086A9",
"t. c #9BA2AB",
"y. c #90A2B3",
"u. c #A7A8B7",
"i. c #AFB1B1",
"p. c #B8B8B8",
"a. c #B2B4A7",
"s. c #C99389",
"d. c #D49C8F",
"f. c #D39787",
"g. c #D09491",
"h. c #C28299",
"j. c #FF8B92",
"k. c #DCA78B",
"l. c #C2B28F",
"z. c #DBA697",
"x. c #D3B291",
"c. c #E6B583",
"v. c #E2A49A",
"b. c #E8AC8D",
"n. c #C49BAA",
"m. c #DA8CB7",
"M. c #CA97B4",
"N. c #D19FB2",
"B. c #D090AB",
"V. c #E89CB4",
"C. c #DBAEA0",
"Z. c #CEB1B7",
"A. c #E2A8A9",
"S. c #F4ABB9",
"D. c #E6B0B3",
"F. c #FFBEBD",
"G. c #F0B1AC",
"H. c #C9C284",
"J. c #FFE08D",
"K. c #D7C7B5",
"L. c #CDC3A3",
"P. c #FECEB1",
"I. c #F4CCAB",
"U. c #8AA6C7",
"Y. c #BDAAC0",
"T. c #8FBBFF",
"R. c #90B2E3",
"E. c #A7BCEB",
"W. c #DE94C3",
"Q. c #F69DCF",
"!. c #CAB7C9",
"~. c #DDBACD",
"^. c #F5ABC3",
"/. c #FFAECF",
"(. c #FDB9C5",
"). c #FFB1CC",
"_. c #F9B6C3",
"`. c #F4A1D4",
"'. c #BBC4D9",
"]. c #9CC3FF",
"[. c #9BC5F9",
"{. c #BFCFEB",
"}. c #A8C9FF",
"|. c #B2CDFF",
" X c #B4D0FF",
".X c #BAD5FA",
"XX c #C6C5C7",
"oX c #CBCDD8",
"OX c #D6C9D3",
"+X c #D2D1D2",
"@X c #D9D9D9",
"#X c #D1D8DF",
"$X c #E1D0CE",
"%X c #E1D5DA",
"&X c #D4D8EA",
"*X c #CADAFB",
"=X c #C5D2EA",
"-X c #E6DBE1",
";X c #D3E1FF",
":X c #D4E0F7",
">X c #ECECEC",
",X c #E8E4E7",
"<X c #E6EEFF",
"1X c #ECF2FF",
"2X c #F5F5F5",
"3X c #F2F5FC",
"4X c #FDFDFD",
"5X c #F9F4F7",
"6X c #F0E7EC",
/* pixels */
"                                                                ",
"                              Q z Q x Q                         ",
"                            ( ( ( ) ^ z ^ !                     ",
"                ,         Q ! _ _ _ ~ K ~ ` x                   ",
"                d g     Z k F ) ) _ R p p / ^                   ",
"                  j.    # Y l z ~ ! J f } R ! x                 ",
"                        T b.W z c 4 Y E 5 u V A                 ",
"                    N   _ H P ~ C t.P.K...w t                   ",
"                    B x.n k k G / z.z.z.o.] V j                 ",
"                  / I k.7 c D F v 1 7 e 1 > 7 i i               ",
"              s.6.} q 8 e 0 b 8.1.@.P J c ; % 0                 ",
"            } { q | $ 4 G 6.s.a.{.r.m.Y J :...                  ",
"            | i s ] [ & D Y 1 + 1.W.Q.S.v...V E                 ",
"              A } ] ] 1 6 0 ;.$ $ a g.d.B...y J S               ",
"                | ] ] ] [ ' p.i.s - v F = 3 Z v *               ",
"      +X>X,XXX9.} ] ] ] [ #.OX:.b Z u b u 1 V @                 ",
"    @X2X4X5X2X@X!.w.  r.!.@XU = c B C.D.I.a < u                 ",
"    5X5X,X,X2X4X2X2X2X>XK.G T T B '.Z._.).S.B 7 6               ",
"  4X6X      n.Y.XX'.p.:.h T a.H.Z.2X-XZ.D.(.^.C.v.c.W V.        ",
"              3.4.3.,.r y 4.l.L.,X4X4X+Xw.n.D._.(.J.P.P.$X`.    ",
"                  2.2.1.>.XXK.-X2X4X4X5Xp.>.w.N._.F.)./.).`.m.  ",
"                  >.t.U.=X3X2X4X4X4X4X4X@X>.>.>.n.^.Q.^.G.v.h.  ",
"              $.&.u.oX.X].;X3X4X4X4X4X4X>Xp.@X+Xn.d.z.z.c.k.d.  ",
"            w.0.y.i.3.Z.*X].*X1X4X4X4X4X2X,X1X<XOXs.s.5.        ",
"            r.+.w.4.+.X.M.&X]. X;X1X3X1X&X=X|.T.E.u.0.t.        ",
"              O.O.O.O.O.O.+.oX}.T.T.}.T.=.-.}.*X XE.*.%.        ",
"                  O.O.    9 @ XX:X*X}.E.y.@X!.:.XXE.-.U.        ",
"                            . w M.~.%Xn.2.B.9 . @ oX&X          ",
"                            O r X.X.          o X               ",
"                          O <                   X               ",
"                          2 i                   X X             ",
"                                                                "
};
