/* XPM */
static char *_e4f1cd00940494ed013ded1b660d698ce7T1O7GFxwAjQSo[] = {
/* columns rows colors chars-per-pixel */
"32 32 188 2 ",
"   c None",
".  c #000101",
"X  c #0A0404",
"o  c #020B03",
"O  c #0B0B02",
"+  c #0B0908",
"@  c #160B09",
"#  c #1B0E0A",
"$  c #031406",
"%  c #041E07",
"&  c #041F0A",
"*  c #0A1B08",
"=  c #000E1A",
"-  c #23130B",
";  c #25170E",
":  c #331D0F",
">  c #271C15",
",  c #331D15",
"<  c #072107",
"1  c #05230B",
"2  c #052B0E",
"3  c #0C250B",
"4  c #172B0C",
"5  c #0C3D0D",
"6  c #14380F",
"7  c #112914",
"8  c #073612",
"9  c #2F2C04",
"0  c #322F00",
"q  c #323200",
"w  c #392513",
"e  c #203012",
"r  c #3B3519",
"t  c #05232F",
"y  c #282122",
"u  c #342C23",
"i  c #43271B",
"p  c #512B1C",
"a  c #4D3514",
"s  c #4C2A20",
"d  c #502D20",
"f  c #43372D",
"g  c #593221",
"h  c #4A3D37",
"j  c #583D35",
"k  c #6F3E21",
"l  c #663C20",
"z  c #0D430E",
"x  c #10480F",
"c  c #074216",
"v  c #0D4C12",
"b  c #0D4710",
"n  c #144E10",
"m  c #1C4517",
"M  c #0E5315",
"N  c #0D5C1A",
"B  c #0A561A",
"V  c #165616",
"C  c #0E611D",
"Z  c #1A651B",
"A  c #276A1A",
"S  c #28751C",
"D  c #1F5821",
"F  c #1C4B28",
"G  c #335A24",
"H  c #334E25",
"J  c #0E6B22",
"K  c #186322",
"L  c #0F7125",
"P  c #0F7D2A",
"I  c #117425",
"U  c #107B29",
"Y  c #1F7028",
"T  c #227324",
"R  c #3C6530",
"E  c #326426",
"W  c #765A16",
"Q  c #787500",
"!  c #424320",
"~  c #574926",
"^  c #4B5722",
"/  c #6D4521",
"(  c #754323",
")  c #7C4B26",
"_  c #6D5139",
"`  c #4D762F",
"'  c #005276",
"]  c #52504B",
"[  c #444746",
"{  c #796953",
"}  c #4F6567",
"|  c #7B7F7D",
" . c #9B7714",
".. c #A07D19",
"X. c #8E5E31",
"o. c #855327",
"O. c #93612E",
"+. c #8A6534",
"@. c #9B6F3E",
"#. c #9F793F",
"$. c #A77A3D",
"%. c #A27B22",
"&. c #826947",
"*. c #93794D",
"=. c #9C7450",
"-. c #8E7157",
";. c #A3774E",
":. c #A37959",
">. c #8E7873",
",. c #168129",
"<. c #1E8729",
"1. c #358A23",
"2. c #2C9128",
"3. c #3D9C27",
"4. c #379627",
"5. c #3FA329",
"6. c #548412",
"7. c #5CA91F",
"8. c #468926",
"9. c #479828",
"0. c #558026",
"q. c #41A429",
"w. c #52A723",
"e. c #38934E",
"r. c #469049",
"t. c #7F8054",
"y. c #8CBA15",
"u. c #ABB805",
"i. c #8A873A",
"p. c #BA9D25",
"a. c #AB843E",
"s. c #B89836",
"d. c #AB8C32",
"f. c #94A23E",
"g. c #BFA22E",
"h. c #CAB70D",
"j. c #C39D3D",
"k. c #C6AB29",
"l. c #C4A72A",
"z. c #CDB32C",
"x. c #8AC41D",
"c. c #DAC81A",
"v. c #CBCB01",
"b. c #E6D914",
"n. c #E6DB0F",
"m. c #D8EA09",
"M. c #EFEE00",
"N. c #E4E30D",
"B. c #FDFB03",
"V. c #F8F706",
"C. c #EBE110",
"Z. c #F8ED13",
"A. c #E6CD28",
"S. c #E7D034",
"D. c #FDF43D",
"F. c #AE8443",
"G. c #AE8840",
"H. c #B78D43",
"J. c #A19C42",
"K. c #AE865A",
"L. c #998266",
"P. c #B09372",
"I. c #A8AB7D",
"U. c #C99A4C",
"Y. c #D6A749",
"T. c #CDB247",
"R. c #E1BA40",
"E. c #CEAD75",
"W. c #F4E54F",
"Q. c #526495",
"!. c #6D7289",
"~. c #1CA9D7",
"^. c #A9ADBD",
"/. c #C7A987",
"(. c #D6B588",
"). c #D8BA91",
"_. c #DEC599",
"`. c #E2C39A",
"'. c #E6CAA2",
"]. c #F7DDB3",
"[. c #EDD6B2",
"{. c #FDE4BB",
"}. c #889BC6",
"|. c #B9D9CC",
" X c #FFE8C3",
".X c #FCF6E9",
"XX c #F9FCF6",
"oX c #EAF2EC",
/* pixels */
"            #.( E C v 1.q.q.q.<.                                ",
"          j.p...0.I x 4.q.q.5.2.<.                              ",
"      a.Y.A.B.B.x.1.x 1.q.5.5.q.4.U U                           ",
"    s.n.s.a.j.R.T.f.1.A 1.5.q.q.5.4.,.C z                       ",
"  l.z.c.U.F.a.S.T.J.q.n S q.q.q.5.2.,.J B                       ",
"$.c.C.F.U.U.a.M.k.i.w.V A 3.3.3.2.P U U L z                     ",
"( h.Z.Y.O.;.E.B.k.g.m.7.S n n n N U U U L z                     ",
"  p.k.$.;.E.E.z.d.g.V.w.Z z N N J U U U I C v                   ",
"    +.l P.`.(.K.a.k.N.8.K M L U U L I U U U n z                 ",
"      @ P.'.].(.S.n.a.a.` J v J J b z N U U M z                 ",
"      X _ &.{ `.D.n.$.X.^ B J B v 5 % 5 C I 8 $                 ",
"      u j h ] [.W.c.F.) ~ R r.` G 5 o < v J & .                 ",
"  . u /.Q.}.XX XE.a.Y.o.=.).].{./.z o < z z $ .                 ",
"  . u /.Q.}.XX XK...b.a -.].{.(.{ $   o 1 C 1 .                 ",
"    u -.!.^..X X:. .M.9 } |._.*.a .   . $ C & .                 ",
"      + L.'.{.{.:. .M.9 ' ~.*.r O O     o 5 $ .                 ",
"        > { `._.*. .M.q = t ; +.g.v.      o                     ",
"          f { t.~ W A.9 $ 2 % ~ d.B.      .                     ",
"            $ z % r H.: 8 J n $ .                               ",
"        . 8 J L L B - g w 1 J 1 .                               ",
"      O Q ` I P B 8 8 G e $ I 2 .                               ",
"      O u.y.S T 3 7 e.e.F $ K 7 X                               ",
"      . K ` / / ; [ oXXX!.O s i , .                             ",
"      o T 4.0.0.4 y >.>.h X i H m .                             ",
"      o A 4.q.4.6 @ p p ; + ! D c .                             ",
"        . m 3.U 2 - k ( w * 4.6 .                               ",
"          < 4 1 = f ).E._ . 4 *                                 ",
"          # - # # u P.>.f . .                                   ",
"        . : k p s , . . . .                                     ",
"        . : ( k g , . . .                                       ",
"          - i w , - . .                                         ",
"            . . . .                                             "
};
