/* XPM */
static char *ec61fcf2c5984811c5d1894b355effa3ml3W71sKWgFMqh0q[] = {
/* columns rows colors chars-per-pixel */
"32 32 209 2 ",
"   c None",
".  c #000101",
"X  c #020B03",
"o  c #0B0A0A",
"O  c #080807",
"+  c #100A09",
"@  c #1A0E0B",
"#  c #180E07",
"$  c #021206",
"%  c #031B0A",
"&  c #071B08",
"*  c #181709",
"=  c #02131B",
"-  c #131415",
";  c #24140B",
":  c #281B0B",
">  c #271611",
",  c #371F10",
"<  c #05230B",
"1  c #0D240A",
"2  c #092B0A",
"3  c #042207",
"4  c #0B3C0C",
"5  c #08340B",
"6  c #13330E",
"7  c #083B13",
"8  c #11310F",
"9  c #252400",
"0  c #37270B",
"q  c #2B251D",
"w  c #392313",
"e  c #253111",
"r  c #091922",
"t  c #342B23",
"y  c #3A3126",
"u  c #49291B",
"i  c #5D361C",
"p  c #4C3A1D",
"a  c #4C2A20",
"s  c #433725",
"d  c #5A3221",
"f  c #4A3E30",
"g  c #6A3D21",
"h  c #703D20",
"j  c #0D430D",
"k  c #0B480F",
"l  c #11490F",
"z  c #0C4C12",
"x  c #094717",
"c  c #134E11",
"v  c #1F4D14",
"b  c #0D5315",
"n  c #0B551C",
"m  c #0E5B19",
"M  c #155413",
"N  c #175618",
"B  c #2C551E",
"V  c #0E631D",
"C  c #0B6B1F",
"Z  c #1C6016",
"A  c #276818",
"S  c #2E721D",
"D  c #0F6B21",
"F  c #0E6121",
"G  c #0F7326",
"H  c #0E7B29",
"J  c #0F7628",
"K  c #107526",
"L  c #107B29",
"P  c #177A27",
"I  c #266C27",
"U  c #2D6424",
"Y  c #34742D",
"T  c #4C5002",
"R  c #76451C",
"E  c #6C411F",
"W  c #524539",
"Q  c #524828",
"!  c #6E4521",
"~  c #6A4E27",
"^  c #744322",
"/  c #7C4B24",
"(  c #7A4D2E",
")  c #675032",
"_  c #4A6630",
"`  c #353C48",
"'  c #387847",
"]  c #424B58",
"[  c #5B575A",
"{  c #59454D",
"}  c #6A5845",
"|  c #5C7945",
" . c #74624D",
".. c #676E45",
"X. c #56687B",
"o. c #776C66",
"O. c #8F721C",
"+. c #86562E",
"@. c #895D35",
"#. c #8D763A",
"$. c #936A38",
"%. c #A1763D",
"&. c #815F42",
"*. c #9F7741",
"=. c #9F7451",
"-. c #907052",
";. c #A37A41",
":. c #A47843",
">. c #A47B55",
",. c #837460",
"<. c #188229",
"1. c #11802B",
"2. c #248C29",
"3. c #288826",
"4. c #358C22",
"5. c #3C8327",
"6. c #3A9625",
"7. c #3C9B26",
"8. c #339A29",
"9. c #359827",
"0. c #2B9129",
"q. c #3FA229",
"w. c #5C8F13",
"e. c #72AF1B",
"r. c #518626",
"t. c #55882C",
"y. c #519228",
"u. c #41A429",
"i. c #59A829",
"p. c #5FA130",
"a. c #7AAB27",
"s. c #3C844E",
"d. c #489E5D",
"f. c #6B8D57",
"g. c #6AA360",
"h. c #B1A407",
"j. c #AA843D",
"k. c #BA9B31",
"l. c #B8963A",
"z. c #B08D2F",
"x. c #8FBF25",
"c. c #BEA22C",
"v. c #C8B314",
"b. c #C29C3D",
"n. c #C3A82A",
"m. c #D2B72C",
"M. c #CAA738",
"N. c #D9BB31",
"B. c #DAC919",
"V. c #D6D016",
"C. c #E1D607",
"Z. c #E6DF10",
"A. c #D0E809",
"S. c #ECED00",
"D. c #E8E209",
"F. c #ECF803",
"G. c #FDFD00",
"H. c #F8F408",
"J. c #F5E41B",
"K. c #EEE60E",
"L. c #DECA26",
"P. c #E7D235",
"I. c #F7EE32",
"U. c #B38643",
"Y. c #B88C48",
"T. c #B18A51",
"R. c #969B6E",
"E. c #BB9669",
"W. c #A39278",
"Q. c #AC8F6B",
"!. c #BEA07A",
"~. c #C89A49",
"^. c #D6A94A",
"/. c #D9A850",
"(. c #CBAA51",
"). c #E1B051",
"_. c #C7A279",
"`. c #E8D64D",
"'. c #2B4E9B",
"]. c #5E7388",
"[. c #7C7E94",
"{. c #1E98BD",
"}. c #7089A1",
"|. c #0097D2",
" X c #7DC2CC",
".X c #9A9193",
"XX c #BBAD96",
"oX c #BBB7B9",
"OX c #D5B48B",
"+X c #D7B88A",
"@X c #DCBD94",
"#X c #D0AE86",
"$X c #E0BF95",
"%X c #BCC0BE",
"&X c #E3C49C",
"*X c #E9CC9E",
"=X c #F8DEB5",
"-X c #E9CCA4",
";X c #FCE1B7",
":X c #FEE4BB",
">X c #FFE9BF",
",X c #92A4CC",
"<X c #9CCECB",
"1X c #CFD3D1",
"2X c #FFEBC7",
"3X c #FFF1D9",
"4X c white",
"5X c #F7FBF8",
"6X c #FFF6E3",
/* pixels */
"                  H H 8.q.u.u.u.6.l z H Y h +.:.                ",
"            L L J 2.0.7.u.u.u.u.6.c M 2.i.h.v.B.N.).Y.%.        ",
"            L L <.8.u.u.u.u.q.6.4.M A i.x.H.H.K.L./.~.l.        ",
"        j m H 0.q.u.u.u.u.u.7.M M 6.p.(.^.).~.j.:.:.B.H.k.:.    ",
"    j z V D L <.2.9.u.u.u.u.q.c c 9.p.Y.M.J.M.*.Y.~.M.n.B.B.l.:.",
"    j b L L L L J 3.6.4.4.4.4.N Z e.a.*.c.G.L.T.~.~.Y.U.Z.G.z.$.",
"    j b L L L L L m j l l j z 6.i.F.D.;.c.G.I.OX=.^ j.).J.H.O.h ",
"j c V G L L L L J K D D C k k L q.F.K.;.j.c.(.OX_.E.%.$.z.c.    ",
"4 z J L L K D D D K J K D m N Y t.V.B.n.l.T._.&X@XOX( u @.U.    ",
"j z J L J V j j 4 V H M j D P *.:.:.k.G.I.OX&X;X$X#XW .         ",
"$ < K K b 4 X 1 j z k V D N c ~ +.%.k.G.I.;XW.y ) @., .         ",
". $ m m j 2 . 3 j _ | g.g.| _ ^ / U.l.V.`.2XXX[ { { { W q       ",
". X j j 4 2 . & 4 R.:X:X:X&X#X( / ^.^.%.E.>X3X4X,X'..XOXy .     ",
". $ D n X X   X X ) Y.*X2X;X-Xt 0 D.V./ >.:X3X4X,X'..X+Xy .     ",
". $ V z . .     . q Q Q.+X<X Xr 9 S.C.R =.:X2X6XoX[.o. .q       ",
". X 5 2 . .     9 * # ~ #.{.|.= 9 S.C.R =.=X;X;X@X!.f .         ",
"    X X         D.m.~.p o = = . 9 S.C.R *.@X@X$X .-             ",
"                  O.~ e < 7 7 X : L.n.w s | } ) y               ",
"                  . . 5 b V F * : U.#.$ < k 5 $ $               ",
"                  . . n K < O i i # 1 K G J G G 7 .             ",
"                  . . n L % . B U x x 2 x H H H w.h.T .         ",
"                  % % N I & o s.d.d.' . 1 I I I e.A.T .         ",
"                . x L Q g # - 1X5X5X%Xo > ^ ! ! _ P 7 .         ",
"                . z 1.5.r.* o ].}.}.X.. 8 r.r.r.6.8.6 .         ",
"                . 7 n 0.u.1 O ` ] ] ` . 8 8.7.u.4.S 6 .         ",
"                  . . S u.& . i / / d . < J 3.u.v .             ",
"                      1 1 X + Q._.&X!.. X % & 1 &               ",
"                        . . o  .,.W.o.> @ @ ; > ;               ",
"                          . . . . . + a u u i ^ , .             ",
"                              . . . + u d g h ^ , .             ",
"                                . . + ; > u w u ; .             ",
"                                      . . . . .                 "
};
