/* XPM */
static char *_793468b38284aeba1be96ed98037fc1laPFsCTI6SsmxMBM[] = {
/* columns rows colors chars-per-pixel */
"32 32 175 2 ",
"   c None",
".  c #000101",
"X  c #0B0605",
"o  c #020B04",
"O  c #0E0B04",
"+  c #0A0C0E",
"@  c #130D09",
"#  c #190E0A",
"$  c #120A06",
"%  c #041405",
"&  c #041608",
"*  c #041A08",
"=  c #0A1C07",
"-  c #101001",
";  c #1B1B01",
":  c #1D150C",
">  c #171914",
",  c #081212",
"<  c #29170C",
"1  c #331C0F",
"2  c #2F1B15",
"3  c #072407",
"4  c #05270A",
"5  c #062A0D",
"6  c #092B0A",
"7  c #0D250A",
"8  c #0C330C",
"9  c #093D0B",
"0  c #073209",
"q  c #062F10",
"w  c #063111",
"e  c #083713",
"r  c #133211",
"t  c #1F3916",
"y  c #17390F",
"u  c #3D3908",
"i  c #3E221B",
"p  c #152A3A",
"a  c #2A2A20",
"s  c #4A2914",
"d  c #4A2A18",
"f  c #713F1E",
"g  c #673A1D",
"h  c #0A430D",
"j  c #0B4512",
"k  c #0C4911",
"l  c #0A4D1A",
"z  c #1B4412",
"x  c #134D10",
"c  c #0D5517",
"v  c #0A501B",
"b  c #135B1A",
"n  c #165818",
"m  c #204208",
"M  c #29580B",
"N  c #28560B",
"B  c #294514",
"V  c #374718",
"C  c #0F621E",
"Z  c #1E6217",
"A  c #236419",
"S  c #256F1A",
"D  c #2A6A1B",
"F  c #29771C",
"G  c #2C7B1E",
"H  c #084E2B",
"J  c #0C5F20",
"K  c #3D4E2A",
"L  c #0D6622",
"P  c #0E6D24",
"I  c #106F27",
"U  c #0D7125",
"Y  c #0E7C29",
"T  c #0F7628",
"R  c #117526",
"E  c #107B29",
"W  c #197927",
"Q  c #336626",
"!  c #257338",
"~  c #24722A",
"^  c #61511D",
"/  c #587407",
"(  c #475825",
")  c #5E5F21",
"_  c #6D4D21",
"`  c #654529",
"'  c #734220",
"]  c #7D4C25",
"[  c #7A542C",
"{  c #795B30",
"}  c #5E7F34",
"|  c #536625",
" . c #7E7C36",
".. c #1D3045",
"X. c #38546F",
"o. c #46535F",
"O. c #5A5350",
"+. c #4B4B4C",
"@. c #5C7543",
"#. c #84552B",
"$. c #89592D",
"%. c #875724",
"&. c #835432",
"*. c #935F30",
"=. c #8C6434",
"-. c #946C3D",
";. c #917139",
":. c #8A732F",
">. c #A1773D",
",. c #966A47",
"<. c #9C7146",
"1. c #A57C42",
"2. c #A77B44",
"3. c #2D821F",
"4. c #3F8D1D",
"5. c #1F8327",
"6. c #198329",
"7. c #228B29",
"8. c #238127",
"9. c #348822",
"0. c #2E9429",
"q. c #379325",
"w. c #399525",
"e. c #3B9926",
"r. c #339A29",
"t. c #3D9F28",
"y. c #309428",
"u. c #29883E",
"i. c #3DA129",
"p. c #638508",
"a. c #538426",
"s. c #5A8D2D",
"d. c #479828",
"f. c #4E8632",
"g. c #4D8326",
"h. c #659732",
"j. c #669832",
"k. c #41A429",
"l. c #42A82A",
"z. c #61B027",
"x. c #BDBD00",
"c. c #B69638",
"v. c #97A92A",
"b. c #D0B12F",
"n. c #ACD410",
"m. c #D1C907",
"M. c #DDE302",
"N. c #E4EB04",
"B. c #AF8850",
"V. c #AA8253",
"C. c #908271",
"Z. c #B89260",
"A. c #B4926E",
"S. c #C79649",
"D. c #C1A949",
"F. c #C3A06C",
"G. c #1D6A86",
"H. c #327D80",
"J. c #057BA0",
"K. c #6D7B8C",
"L. c #028FA7",
"P. c #8899A9",
"I. c #B5B3A7",
"U. c #D4B287",
"Y. c #BCC6BF",
"T. c #D5C29F",
"R. c #E5C79E",
"E. c #ECCFA7",
"W. c #E7C9A0",
"Q. c #F5DAAF",
"!. c #F1D6AC",
"~. c #F9E2BB",
"^. c #BDC9C0",
"/. c #CED3C4",
"(. c #C3D3D1",
/* pixels */
"                        . . { 1.1.1.1.=.f                       ",
"                      . z D s.h.h.h.h.s.a. .2.                  ",
"                    7 y D 9.3.3.3.G 3.q.l.v.b.                  ",
"                  O z t.S x x x x x x S e.n.N.c.2.              ",
"              . = 9.G x F e.e.w.e.e.e.F x 4.z.D.S.] '           ",
"            . 3 8 Z S 3.w.k.k.k.k.i.l.w.3.S A f.} ' f           ",
"          . o j b A S 3.w.k.k.k.l.l.k.w.3.n h U ~ { $.          ",
"          . o L W q.G x G l.k.k.i.l.l.F x x x C ~ ;.;.          ",
"          . o L P & z e.i.k.k.k.k.k.k.i.e.w.q.7 & z V f         ",
"    >.Z.U.K 5 P L . q 7.w.k.k.k.k.k.k.k.k.0.5.& o 9 ( A.V.1.    ",
"  <.F.U.R.} h R I w e l W r.i.l.k.k.k.k.k.7.T & o 9 } W.U.F.<.  ",
"f ,.E.!.Q.@.h P T E v . j R y.i.k.k.k.i.i.W L * % 0 @.!.!.E.,.f ",
"    &.,.B.( h h c E v . 6 k R 6.t.k.k.0.E e o 8 9 h ( B.-.&.    ",
"      ] %.H.L.H 9 c j 6 3 % h b 5.7.7.6.Y q . 0 H L.H.#.]       ",
"        ' G.J.a./ V B h 4 % 3 0 P Y Y Y Y 4 . / a.J.G.f         ",
"          . - x.m.%.^ N M N = o L R E E Y 4 X x.m.- .           ",
"              ; s S.b.M.N.M.u . h c Y E E 5 . ; ;               ",
"              . ; *.:.p.p.p.m 4 % 7 c c c * . . .               ",
"              4 9 ( V h k v c c q 4 6 6 4 6 q 4 5               ",
"          . o ! u.R C k C Y E E E L % o + v W u.! , +           ",
"          . + ^.Y.> w U T E E E E T P P P ( [ /.(.X....         ",
"          . X +.O.d V Y Y Y Y Y Y Y Y Y Y t 2 K.P.I.C.d < .     ",
"            . . O ) | Q Q Q Q Q Q Q Q Q Q r * p o.~.U.' 1 .     ",
"              . = e.g._ _ _ _ _ _ _ _ _ _ B j % a T.A.g 1 .     ",
"              . & R 7.d.d.d.d.d.d.d.d.d.d.8.P j r > > X X       ",
"                  5 l 7.r.l.l.l.l.l.l.k.l.7.T 5 =               ",
"                  . * l Z D D D D D D D D n l % .               ",
"                  @ @ @ $ X . . . . . . . . .                   ",
"              . : =.-.;.` i $ .                                 ",
"              . # [ $.$.d # X                                   ",
"                $ s d d < .                                     ",
"                  . . .                                         "
};
