/* XPM */
static char *d2cd04554d514211aa074a8d4e0e5a2cwJIZ3rsrh4lnRgFH[] = {
/* columns rows colors chars-per-pixel */
"32 32 69 1 ",
"  c #494242",
". c #574F4F",
"X c #584F4F",
"o c #5B5252",
"O c #605656",
"+ c #615857",
"@ c #655B5B",
"# c #695E5E",
"$ c #6B615F",
"% c #6D6262",
"& c #716666",
"* c #736967",
"= c #766A6A",
"- c #796C6C",
"; c #7C716F",
": c #7E6F70",
"> c #7E7471",
", c #827573",
"< c #867A76",
"1 c #877778",
"2 c #877B78",
"3 c #877C78",
"4 c #887A79",
"5 c #8A7B7A",
"6 c #8A7E7A",
"7 c #8C7E7C",
"8 c #8D7E7C",
"9 c #8A817B",
"0 c #8B807C",
"q c #8F817F",
"w c #928381",
"e c #948482",
"r c #938883",
"t c #968984",
"y c #978885",
"u c #958C84",
"i c #998986",
"p c #998A87",
"a c #9A8B87",
"s c #9A8C87",
"d c #9A8C88",
"f c #9B8C88",
"g c #9C8F89",
"h c #9D8E8A",
"j c #9D908A",
"k c #9F908B",
"l c #9C928A",
"z c #9F918C",
"x c #9E948C",
"c c #A0918D",
"v c #A1938D",
"b c #A1928E",
"n c #A2948E",
"m c #A3948F",
"M c #A3958F",
"N c #A1988E",
"B c #A2998F",
"V c #A49A91",
"C c #A79992",
"Z c #A79993",
"A c #A49A92",
"S c #AC9F97",
"D c #ACA097",
"F c #AEA399",
"G c #AFA29A",
"H c #B0A49B",
"J c #B3A69D",
"K c #B6AAA0",
"L c #B6ABA0",
/* pixels */
"X-;uBBBBBBzBBxBBBxBBVVBxBBxVu,-.",
"                                ",
"+<%*=o>*%=@=>%*%@<$**o,=%=@*>$*.",
"*Jnxl=DChl>yFxnq;Jnxf=Dnxz>uFnn$",
"o==-=@;*--@====*$;===@;=--#*-=-o",
"+>=Z0<2%zr22=7z6<>=C0<3%zr<<*$=o",
"+,-naae*lffp-0ffs<-nsfw*gfsy-=2O",
"o*@=%@=@=%#%%%*%$*@=%$*@*&#*%@*.",
"=Lgfy*FCya;uFff7>Lfpy=FZaa;yFff$",
"+6551#0565*>756:%w722%7755*,760o",
".#+==*=o*=**@#-=*%+-&%*o*=**#@%X",
"O,-nbby%szbz-6bzz7-nbmp%azzl-=2+",
"o&#>===#;-==%*--*%%>-*=@:-=-##=o",
"%C<65%xw26*7l25>-V332%zw26=0p56O",
"$laaw*gfay-qzpp5-bfpr*zgyy:7gff@",
"o%#=*+*#**@%%%*%@*#==o=@*&@%%#%.",
"+6>Llay*FCus>uFaf7>Llay*FCss;*,o",
"o-*q5<1%7555%,755:%q55,%7563%*,o",
"@9*==@5===#-,*=*%3===@<==-$=,=-o",
"*Jnzp=SCbl>yFbb7>Jnxf=SCzz>ySzb#",
"o=*==#-=--@*==-*%;===$-=--#*-=-o",
"o*#65<,O<2<5#=65,=#96,>#,511%#=o",
"O:=gpaw%aray=5gaf3-fafw*ypay==1o",
"o*#=%#*#**%%%%*%@*#*%@*@=%#*%@*o",
"=Llay*Fbpg-aFas6>Lffy*FVap;yFff$",
"O5521%6655=>7<5>*q62<%6655*,760o",
"o*%6;%=@<>*=%=<=%*%3-*=@<>%*#@%X",
"@5>Jnbf=Smlb;yFzbq>Jbzf-SCbb>=1@",
"o%%-===@;===#=-===@;===O-===#@-o",
"%V663%xw<5*9l<6,=V335%zw66=7l27o",
"%lgpe*lpfs-wbaf7>naaw*lfaa-wbpg@",
"XO+oOX@+OOoo@oooo@+oOo@@oooOOOO."
};
